<svg width="8" height="8" viewBox="0 0 8 8" fill="none" xmlns="http://www.w3.org/2000/svg">
<path d="M3.159 7.80335C3.50767 7.80335 3.77127 7.66946 3.94979 7.40168L7.81172 1.58159C7.87587 1.48675 7.92329 1.39331 7.95397 1.30126C7.98466 1.20642 8 1.11576 8 1.02929C8 0.789403 7.91632 0.591355 7.74895 0.435149C7.58438 0.276153 7.38075 0.196655 7.13808 0.196655C6.97071 0.196655 6.82845 0.230128 6.7113 0.297074C6.59693 0.36123 6.48814 0.472806 6.38494 0.631802L3.14226 5.72385L1.51883 3.77825C1.3431 3.57462 1.12273 3.47281 0.857741 3.47281C0.609484 3.47281 0.404463 3.5523 0.242678 3.7113C0.0808926 3.8703 0 4.06974 0 4.30963C0 4.41841 0.0167364 4.52162 0.0502092 4.61925C0.0864714 4.71409 0.152022 4.81311 0.246862 4.91632L2.40167 7.45607C2.59972 7.68759 2.85216 7.80335 3.159 7.80335Z" fill="white"/>
</svg>
