<svg width="20" height="13" viewBox="0 0 20 13" fill="none" xmlns="http://www.w3.org/2000/svg">
<g clip-path="url(#clip0_31_3929)">
<path d="M19.1667 7.05743H0.833333C0.373332 7.05743 0 6.73036 0 6.32736C0 5.92436 0.373332 5.59729 0.833333 5.59729H19.1667C19.6267 5.59729 20 5.92436 20 6.32736C20 6.73036 19.6267 7.05743 19.1667 7.05743Z" fill="white"/>
<path d="M19.1667 1.46015H0.833333C0.373332 1.46015 0 1.13307 0 0.730073C0 0.327071 0.373332 0 0.833333 0H19.1667C19.6267 0 20 0.327071 20 0.730073C20 1.13307 19.6267 1.46015 19.1667 1.46015Z" fill="white"/>
<path d="M19.1667 12.6545H0.833333C0.373332 12.6545 0 12.3274 0 11.9244C0 11.5214 0.373332 11.1943 0.833333 11.1943H19.1667C19.6267 11.1943 20 11.5214 20 11.9244C20 12.3274 19.6267 12.6545 19.1667 12.6545Z" fill="white"/>
</g>
<defs>
<clipPath id="clip0_31_3929">
<rect width="20" height="13" fill="white"/>
</clipPath>
</defs>
</svg>
