<svg width="13" height="11" viewBox="0 0 13 11" fill="none" xmlns="http://www.w3.org/2000/svg">
<path d="M11.375 0H3.5C3.26815 0.000692443 3.04599 0.0931021 2.88205 0.257047C2.7181 0.420991 2.62569 0.643149 2.625 0.875V7C2.62569 7.23185 2.7181 7.45401 2.88205 7.61795C3.04599 7.7819 3.26815 7.87431 3.5 7.875H11.375C11.6069 7.87431 11.829 7.7819 11.993 7.61795C12.1569 7.45401 12.2493 7.23185 12.25 7V0.875C12.2493 0.643149 12.1569 0.420991 11.993 0.257047C11.829 0.0931021 11.6069 0.000692443 11.375 0V0ZM11.375 7H3.5V0.875H11.375V7Z" fill="#263057"/>
<path d="M7 9.625H0.875V5.25H1.75V4.375H0.875C0.643149 4.37569 0.420991 4.4681 0.257047 4.63205C0.0931021 4.79599 0.000692443 5.01815 0 5.25V9.625C0.000692443 9.85685 0.0931021 10.079 0.257047 10.243C0.420991 10.4069 0.643149 10.4993 0.875 10.5H7C7.23185 10.4993 7.45401 10.4069 7.61795 10.243C7.7819 10.079 7.87431 9.85685 7.875 9.625V8.75H7V9.625Z" fill="#263057"/>
</svg>
